<?xml version="1.0" encoding="UTF-8" standalone="no"?>
<!DOCTYPE svg PUBLIC "-//W3C//DTD SVG 1.1//EN"
 "http://www.w3.org/Graphics/SVG/1.1/DTD/svg11.dtd">
<!-- Generated by graphviz version 2.47.0 (20210316.0004)
 -->
<!-- Title: dependencies Pages: 1 -->
<svg width="504pt" height="284pt"
 viewBox="0.00 0.00 504.00 284.00" xmlns="http://www.w3.org/2000/svg" xmlns:xlink="http://www.w3.org/1999/xlink">
<g id="graph0" class="graph" transform="scale(1 1) rotate(0) translate(4 280)">
<title>dependencies</title>
<polygon fill="white" stroke="transparent" points="-4,4 -4,-280 500,-280 500,4 -4,4"/>
<text text-anchor="start" x="227.01" y="-42.4" font-family="Times-12" font-weight="bold" font-size="14.00">Legend</text>
<polygon fill="#ffffb3" stroke="transparent" points="14,-10 14,-30 34,-30 34,-10 14,-10"/>
<text text-anchor="start" x="37.63" y="-15.4" font-family="Times-12" font-size="14.00"> &#160;Declarations</text>
<polygon fill="#8dd3c7" stroke="transparent" points="127,-10 127,-30 147,-30 147,-10 127,-10"/>
<text text-anchor="start" x="150.73" y="-15.4" font-family="Times-12" font-size="14.00"> &#160;Module</text>
<polygon fill="#80b1d3" stroke="transparent" points="213,-10 213,-30 233,-30 233,-10 213,-10"/>
<text text-anchor="start" x="236.78" y="-15.4" font-family="Times-12" font-size="14.00"> &#160;Bootstrap</text>
<polygon fill="#fdb462" stroke="transparent" points="310,-10 310,-30 330,-30 330,-10 310,-10"/>
<text text-anchor="start" x="333.67" y="-15.4" font-family="Times-12" font-size="14.00"> &#160;Providers</text>
<polygon fill="#fb8072" stroke="transparent" points="406,-10 406,-30 426,-30 426,-10 406,-10"/>
<text text-anchor="start" x="429.73" y="-15.4" font-family="Times-12" font-size="14.00"> &#160;Exports</text>
<g id="clust1" class="cluster">
<title>cluster_SharedModule</title>
<polygon fill="none" stroke="black" stroke-dasharray="1,5" points="68,-70 68,-268 428,-268 428,-70 68,-70"/>
</g>
<g id="clust4" class="cluster">
<title>cluster_SharedModule_exports</title>
<polygon fill="none" stroke="black" points="100,-208 100,-260 366,-260 366,-208 100,-208"/>
</g>
<g id="clust6" class="cluster">
<title>cluster_SharedModule_providers</title>
<polygon fill="none" stroke="black" points="76,-78 76,-130 420,-130 420,-78 76,-78"/>
</g>
<!-- GeneratorService  -->
<g id="node1" class="node">
<title>GeneratorService </title>
<polygon fill="#fb8072" stroke="black" points="357.94,-252 240.06,-252 240.06,-216 357.94,-216 357.94,-252"/>
<text text-anchor="middle" x="299" y="-229.8" font-family="Times,serif" font-size="14.00">GeneratorService </text>
</g>
<!-- ValidatorService  -->
<g id="node2" class="node">
<title>ValidatorService </title>
<polygon fill="#fb8072" stroke="black" points="222.35,-252 107.65,-252 107.65,-216 222.35,-216 222.35,-252"/>
<text text-anchor="middle" x="165" y="-229.8" font-family="Times,serif" font-size="14.00">ValidatorService </text>
</g>
<!-- SharedModule -->
<g id="node3" class="node">
<title>SharedModule</title>
<polygon fill="#8dd3c7" stroke="black" points="238.42,-187 235.42,-191 214.42,-191 211.42,-187 139.58,-187 139.58,-151 238.42,-151 238.42,-187"/>
<text text-anchor="middle" x="189" y="-164.8" font-family="Times,serif" font-size="14.00">SharedModule</text>
</g>
<!-- SharedModule&#45;&gt;GeneratorService  -->
<g id="edge1" class="edge">
<title>SharedModule&#45;&gt;GeneratorService </title>
<path fill="none" stroke="black" stroke-dasharray="5,2" d="M238.23,-175C243.7,-175 247.34,-175 247.34,-175 247.34,-175 247.34,-205.98 247.34,-205.98"/>
<polygon fill="black" stroke="black" points="243.84,-205.98 247.34,-215.98 250.84,-205.98 243.84,-205.98"/>
</g>
<!-- SharedModule&#45;&gt;ValidatorService  -->
<g id="edge2" class="edge">
<title>SharedModule&#45;&gt;ValidatorService </title>
<path fill="none" stroke="black" stroke-dasharray="5,2" d="M180.98,-187.11C180.98,-187.11 180.98,-205.99 180.98,-205.99"/>
<polygon fill="black" stroke="black" points="177.48,-205.99 180.98,-215.99 184.48,-205.99 177.48,-205.99"/>
</g>
<!-- GeneratorService -->
<g id="node4" class="node">
<title>GeneratorService</title>
<ellipse fill="#fdb462" stroke="black" cx="333" cy="-104" rx="78.69" ry="18"/>
<text text-anchor="middle" x="333" y="-99.8" font-family="Times,serif" font-size="14.00">GeneratorService</text>
</g>
<!-- GeneratorService&#45;&gt;SharedModule -->
<g id="edge3" class="edge">
<title>GeneratorService&#45;&gt;SharedModule</title>
<path fill="none" stroke="black" d="M306.06,-121.07C306.06,-138.49 306.06,-163 306.06,-163 306.06,-163 248.31,-163 248.31,-163"/>
<polygon fill="black" stroke="black" points="248.31,-159.5 238.31,-163 248.31,-166.5 248.31,-159.5"/>
</g>
<!-- ValidatorService -->
<g id="node5" class="node">
<title>ValidatorService</title>
<ellipse fill="#fdb462" stroke="black" cx="160" cy="-104" rx="76.42" ry="18"/>
<text text-anchor="middle" x="160" y="-99.8" font-family="Times,serif" font-size="14.00">ValidatorService</text>
</g>
<!-- ValidatorService&#45;&gt;SharedModule -->
<g id="edge4" class="edge">
<title>ValidatorService&#45;&gt;SharedModule</title>
<path fill="none" stroke="black" d="M188.12,-120.74C188.12,-120.74 188.12,-140.72 188.12,-140.72"/>
<polygon fill="black" stroke="black" points="184.62,-140.72 188.12,-150.72 191.62,-140.72 184.62,-140.72"/>
</g>
</g>
</svg>
