<?xml version="1.0" encoding="UTF-8" standalone="no"?>
<!DOCTYPE svg PUBLIC "-//W3C//DTD SVG 1.1//EN"
 "http://www.w3.org/Graphics/SVG/1.1/DTD/svg11.dtd">
<!-- Generated by graphviz version 2.47.0 (20210316.0004)
 -->
<!-- Title: dependencies Pages: 1 -->
<svg width="504pt" height="211pt"
 viewBox="0.00 0.00 504.00 211.00" xmlns="http://www.w3.org/2000/svg" xmlns:xlink="http://www.w3.org/1999/xlink">
<g id="graph0" class="graph" transform="scale(1 1) rotate(0) translate(4 207)">
<title>dependencies</title>
<polygon fill="white" stroke="transparent" points="-4,4 -4,-207 500,-207 500,4 -4,4"/>
<text text-anchor="start" x="227.01" y="-42.4" font-family="Times-12" font-weight="bold" font-size="14.00">Legend</text>
<polygon fill="#ffffb3" stroke="transparent" points="14,-10 14,-30 34,-30 34,-10 14,-10"/>
<text text-anchor="start" x="37.63" y="-15.4" font-family="Times-12" font-size="14.00"> &#160;Declarations</text>
<polygon fill="#8dd3c7" stroke="transparent" points="127,-10 127,-30 147,-30 147,-10 127,-10"/>
<text text-anchor="start" x="150.73" y="-15.4" font-family="Times-12" font-size="14.00"> &#160;Module</text>
<polygon fill="#80b1d3" stroke="transparent" points="213,-10 213,-30 233,-30 233,-10 213,-10"/>
<text text-anchor="start" x="236.78" y="-15.4" font-family="Times-12" font-size="14.00"> &#160;Bootstrap</text>
<polygon fill="#fdb462" stroke="transparent" points="310,-10 310,-30 330,-30 330,-10 310,-10"/>
<text text-anchor="start" x="333.67" y="-15.4" font-family="Times-12" font-size="14.00"> &#160;Providers</text>
<polygon fill="#fb8072" stroke="transparent" points="406,-10 406,-30 426,-30 426,-10 406,-10"/>
<text text-anchor="start" x="429.73" y="-15.4" font-family="Times-12" font-size="14.00"> &#160;Exports</text>
<g id="clust1" class="cluster">
<title>cluster_SteroidsModule</title>
<polygon fill="none" stroke="black" stroke-dasharray="1,5" points="88,-70 88,-195 408,-195 408,-70 88,-70"/>
</g>
<g id="clust6" class="cluster">
<title>cluster_SteroidsModule_providers</title>
<polygon fill="none" stroke="black" points="240,-78 240,-130 400,-130 400,-78 240,-78"/>
</g>
<g id="clust3" class="cluster">
<title>cluster_SteroidsModule_imports</title>
<polygon fill="none" stroke="black" points="96,-78 96,-130 232,-130 232,-78 96,-78"/>
</g>
<!-- CommentsModule -->
<g id="node1" class="node">
<title>CommentsModule</title>
<polygon fill="#8dd3c7" stroke="black" points="224.22,-122 221.22,-126 200.22,-126 197.22,-122 103.78,-122 103.78,-86 224.22,-86 224.22,-122"/>
<text text-anchor="middle" x="164" y="-99.8" font-family="Times,serif" font-size="14.00">CommentsModule</text>
</g>
<!-- SteroidsModule -->
<g id="node2" class="node">
<title>SteroidsModule</title>
<polygon fill="#8dd3c7" stroke="black" points="294.93,-187 291.93,-191 270.93,-191 267.93,-187 189.07,-187 189.07,-151 294.93,-151 294.93,-187"/>
<text text-anchor="middle" x="242" y="-164.8" font-family="Times,serif" font-size="14.00">SteroidsModule</text>
</g>
<!-- CommentsModule&#45;&gt;SteroidsModule -->
<g id="edge1" class="edge">
<title>CommentsModule&#45;&gt;SteroidsModule</title>
<path fill="none" stroke="black" d="M206.7,-122.11C206.7,-122.11 206.7,-140.99 206.7,-140.99"/>
<polygon fill="black" stroke="black" points="203.2,-140.99 206.7,-150.99 210.2,-140.99 203.2,-140.99"/>
</g>
<!-- SteroidsService -->
<g id="node3" class="node">
<title>SteroidsService</title>
<ellipse fill="#fdb462" stroke="black" cx="320" cy="-104" rx="71.78" ry="18"/>
<text text-anchor="middle" x="320" y="-99.8" font-family="Times,serif" font-size="14.00">SteroidsService</text>
</g>
<!-- SteroidsService&#45;&gt;SteroidsModule -->
<g id="edge2" class="edge">
<title>SteroidsService&#45;&gt;SteroidsModule</title>
<path fill="none" stroke="black" d="M271.54,-117.47C271.54,-117.47 271.54,-140.86 271.54,-140.86"/>
<polygon fill="black" stroke="black" points="268.04,-140.86 271.54,-150.86 275.04,-140.86 268.04,-140.86"/>
</g>
</g>
</svg>
