<?xml version="1.0" encoding="UTF-8" standalone="no"?>
<!DOCTYPE svg PUBLIC "-//W3C//DTD SVG 1.1//EN"
 "http://www.w3.org/Graphics/SVG/1.1/DTD/svg11.dtd">
<!-- Generated by graphviz version 2.47.0 (20210316.0004)
 -->
<!-- Title: dependencies Pages: 1 -->
<svg width="1222pt" height="211pt"
 viewBox="0.00 0.00 1222.00 211.00" xmlns="http://www.w3.org/2000/svg" xmlns:xlink="http://www.w3.org/1999/xlink">
<g id="graph0" class="graph" transform="scale(1 1) rotate(0) translate(4 207)">
<title>dependencies</title>
<polygon fill="white" stroke="transparent" points="-4,4 -4,-207 1218,-207 1218,4 -4,4"/>
<text text-anchor="start" x="586.01" y="-42.4" font-family="Times-12" font-weight="bold" font-size="14.00">Legend</text>
<polygon fill="#ffffb3" stroke="transparent" points="373,-10 373,-30 393,-30 393,-10 373,-10"/>
<text text-anchor="start" x="396.63" y="-15.4" font-family="Times-12" font-size="14.00"> &#160;Declarations</text>
<polygon fill="#8dd3c7" stroke="transparent" points="486,-10 486,-30 506,-30 506,-10 486,-10"/>
<text text-anchor="start" x="509.73" y="-15.4" font-family="Times-12" font-size="14.00"> &#160;Module</text>
<polygon fill="#80b1d3" stroke="transparent" points="572,-10 572,-30 592,-30 592,-10 572,-10"/>
<text text-anchor="start" x="595.78" y="-15.4" font-family="Times-12" font-size="14.00"> &#160;Bootstrap</text>
<polygon fill="#fdb462" stroke="transparent" points="669,-10 669,-30 689,-30 689,-10 669,-10"/>
<text text-anchor="start" x="692.67" y="-15.4" font-family="Times-12" font-size="14.00"> &#160;Providers</text>
<polygon fill="#fb8072" stroke="transparent" points="765,-10 765,-30 785,-30 785,-10 765,-10"/>
<text text-anchor="start" x="788.73" y="-15.4" font-family="Times-12" font-size="14.00"> &#160;Exports</text>
<g id="clust1" class="cluster">
<title>cluster_AppModule</title>
<polygon fill="none" stroke="black" stroke-dasharray="1,5" points="8,-70 8,-195 1206,-195 1206,-70 8,-70"/>
</g>
<g id="clust3" class="cluster">
<title>cluster_AppModule_imports</title>
<polygon fill="none" stroke="black" points="154,-78 154,-130 1198,-130 1198,-78 154,-78"/>
</g>
<g id="clust6" class="cluster">
<title>cluster_AppModule_providers</title>
<polygon fill="none" stroke="black" points="16,-78 16,-130 146,-130 146,-78 16,-78"/>
</g>
<!-- ArticlesModule -->
<g id="node1" class="node">
<title>ArticlesModule</title>
<polygon fill="#8dd3c7" stroke="black" points="1189.86,-122 1186.86,-126 1165.86,-126 1162.86,-122 1086.14,-122 1086.14,-86 1189.86,-86 1189.86,-122"/>
<text text-anchor="middle" x="1138" y="-99.8" font-family="Times,serif" font-size="14.00">ArticlesModule</text>
</g>
<!-- AppModule -->
<g id="node9" class="node">
<title>AppModule</title>
<polygon fill="#8dd3c7" stroke="black" points="619.66,-187 616.66,-191 595.66,-191 592.66,-187 536.34,-187 536.34,-151 619.66,-151 619.66,-187"/>
<text text-anchor="middle" x="578" y="-164.8" font-family="Times,serif" font-size="14.00">AppModule</text>
</g>
<!-- ArticlesModule&#45;&gt;AppModule -->
<g id="edge1" class="edge">
<title>ArticlesModule&#45;&gt;AppModule</title>
<path fill="none" stroke="black" d="M1138,-122.01C1138,-144.49 1138,-180 1138,-180 1138,-180 630.09,-180 630.09,-180"/>
<polygon fill="black" stroke="black" points="630.09,-176.5 620.09,-180 630.09,-183.5 630.09,-176.5"/>
</g>
<!-- AuthenticationModule -->
<g id="node2" class="node">
<title>AuthenticationModule</title>
<polygon fill="#8dd3c7" stroke="black" points="1068.25,-122 1065.25,-126 1044.25,-126 1041.25,-122 925.75,-122 925.75,-86 1068.25,-86 1068.25,-122"/>
<text text-anchor="middle" x="997" y="-99.8" font-family="Times,serif" font-size="14.00">AuthenticationModule</text>
</g>
<!-- AuthenticationModule&#45;&gt;AppModule -->
<g id="edge2" class="edge">
<title>AuthenticationModule&#45;&gt;AppModule</title>
<path fill="none" stroke="black" d="M997,-122.13C997,-142.57 997,-173 997,-173 997,-173 629.71,-173 629.71,-173"/>
<polygon fill="black" stroke="black" points="629.71,-169.5 619.71,-173 629.71,-176.5 629.71,-169.5"/>
</g>
<!-- CategoriesModule -->
<g id="node3" class="node">
<title>CategoriesModule</title>
<polygon fill="#8dd3c7" stroke="black" points="907.92,-122 904.92,-126 883.92,-126 880.92,-122 788.08,-122 788.08,-86 907.92,-86 907.92,-122"/>
<text text-anchor="middle" x="848" y="-99.8" font-family="Times,serif" font-size="14.00">CategoriesModule</text>
</g>
<!-- CategoriesModule&#45;&gt;AppModule -->
<g id="edge3" class="edge">
<title>CategoriesModule&#45;&gt;AppModule</title>
<path fill="none" stroke="black" d="M848,-122.27C848,-140.56 848,-166 848,-166 848,-166 629.89,-166 629.89,-166"/>
<polygon fill="black" stroke="black" points="629.89,-162.5 619.89,-166 629.89,-169.5 629.89,-162.5"/>
</g>
<!-- CommentsModule -->
<g id="node4" class="node">
<title>CommentsModule</title>
<polygon fill="#8dd3c7" stroke="black" points="770.22,-122 767.22,-126 746.22,-126 743.22,-122 649.78,-122 649.78,-86 770.22,-86 770.22,-122"/>
<text text-anchor="middle" x="710" y="-99.8" font-family="Times,serif" font-size="14.00">CommentsModule</text>
</g>
<!-- CommentsModule&#45;&gt;AppModule -->
<g id="edge4" class="edge">
<title>CommentsModule&#45;&gt;AppModule</title>
<path fill="none" stroke="black" d="M710,-122.01C710,-138.05 710,-159 710,-159 710,-159 629.77,-159 629.77,-159"/>
<polygon fill="black" stroke="black" points="629.77,-155.5 619.77,-159 629.77,-162.5 629.77,-155.5"/>
</g>
<!-- ReviewsModule -->
<g id="node5" class="node">
<title>ReviewsModule</title>
<polygon fill="#8dd3c7" stroke="black" points="631.76,-122 628.76,-126 607.76,-126 604.76,-122 524.24,-122 524.24,-86 631.76,-86 631.76,-122"/>
<text text-anchor="middle" x="578" y="-99.8" font-family="Times,serif" font-size="14.00">ReviewsModule</text>
</g>
<!-- ReviewsModule&#45;&gt;AppModule -->
<g id="edge5" class="edge">
<title>ReviewsModule&#45;&gt;AppModule</title>
<path fill="none" stroke="black" d="M578,-122.11C578,-122.11 578,-140.99 578,-140.99"/>
<polygon fill="black" stroke="black" points="574.5,-140.99 578,-150.99 581.5,-140.99 574.5,-140.99"/>
</g>
<!-- SourcesModule -->
<g id="node6" class="node">
<title>SourcesModule</title>
<polygon fill="#8dd3c7" stroke="black" points="505.87,-122 502.87,-126 481.87,-126 478.87,-122 402.13,-122 402.13,-86 505.87,-86 505.87,-122"/>
<text text-anchor="middle" x="454" y="-99.8" font-family="Times,serif" font-size="14.00">SourcesModule</text>
</g>
<!-- SourcesModule&#45;&gt;AppModule -->
<g id="edge6" class="edge">
<title>SourcesModule&#45;&gt;AppModule</title>
<path fill="none" stroke="black" d="M454,-122.01C454,-138.05 454,-159 454,-159 454,-159 526.02,-159 526.02,-159"/>
<polygon fill="black" stroke="black" points="526.02,-162.5 536.02,-159 526.02,-155.5 526.02,-162.5"/>
</g>
<!-- UsersModule -->
<g id="node7" class="node">
<title>UsersModule</title>
<polygon fill="#8dd3c7" stroke="black" points="383.92,-122 380.92,-126 359.92,-126 356.92,-122 292.08,-122 292.08,-86 383.92,-86 383.92,-122"/>
<text text-anchor="middle" x="338" y="-99.8" font-family="Times,serif" font-size="14.00">UsersModule</text>
</g>
<!-- UsersModule&#45;&gt;AppModule -->
<g id="edge7" class="edge">
<title>UsersModule&#45;&gt;AppModule</title>
<path fill="none" stroke="black" d="M338,-122.27C338,-140.56 338,-166 338,-166 338,-166 526.2,-166 526.2,-166"/>
<polygon fill="black" stroke="black" points="526.2,-169.5 536.2,-166 526.2,-162.5 526.2,-169.5"/>
</g>
<!-- _SteroidsModule -->
<g id="node8" class="node">
<title>_SteroidsModule</title>
<polygon fill="#8dd3c7" stroke="black" points="274.43,-122 271.43,-126 250.43,-126 247.43,-122 161.57,-122 161.57,-86 274.43,-86 274.43,-122"/>
<text text-anchor="middle" x="218" y="-99.8" font-family="Times,serif" font-size="14.00">_SteroidsModule</text>
</g>
<!-- _SteroidsModule&#45;&gt;AppModule -->
<g id="edge8" class="edge">
<title>_SteroidsModule&#45;&gt;AppModule</title>
<path fill="none" stroke="black" d="M218,-122.13C218,-142.57 218,-173 218,-173 218,-173 526,-173 526,-173"/>
<polygon fill="black" stroke="black" points="526,-176.5 536,-173 526,-169.5 526,-176.5"/>
</g>
<!-- AppService -->
<g id="node10" class="node">
<title>AppService</title>
<ellipse fill="#fdb462" stroke="black" cx="81" cy="-104" rx="56.74" ry="18"/>
<text text-anchor="middle" x="81" y="-99.8" font-family="Times,serif" font-size="14.00">AppService</text>
</g>
<!-- AppService&#45;&gt;AppModule -->
<g id="edge9" class="edge">
<title>AppService&#45;&gt;AppModule</title>
<path fill="none" stroke="black" d="M81,-122.01C81,-144.49 81,-180 81,-180 81,-180 526.05,-180 526.05,-180"/>
<polygon fill="black" stroke="black" points="526.05,-183.5 536.05,-180 526.05,-176.5 526.05,-183.5"/>
</g>
</g>
</svg>
