<?xml version="1.0" encoding="UTF-8" standalone="no"?>
<!DOCTYPE svg PUBLIC "-//W3C//DTD SVG 1.1//EN"
 "http://www.w3.org/Graphics/SVG/1.1/DTD/svg11.dtd">
<!-- Generated by graphviz version 2.47.0 (20210316.0004)
 -->
<!-- Title: dependencies Pages: 1 -->
<svg width="504pt" height="284pt"
 viewBox="0.00 0.00 504.00 284.00" xmlns="http://www.w3.org/2000/svg" xmlns:xlink="http://www.w3.org/1999/xlink">
<g id="graph0" class="graph" transform="scale(1 1) rotate(0) translate(4 280)">
<title>dependencies</title>
<polygon fill="white" stroke="transparent" points="-4,4 -4,-280 500,-280 500,4 -4,4"/>
<text text-anchor="start" x="227.01" y="-42.4" font-family="Times-12" font-weight="bold" font-size="14.00">Legend</text>
<polygon fill="#ffffb3" stroke="transparent" points="14,-10 14,-30 34,-30 34,-10 14,-10"/>
<text text-anchor="start" x="37.63" y="-15.4" font-family="Times-12" font-size="14.00"> &#160;Declarations</text>
<polygon fill="#8dd3c7" stroke="transparent" points="127,-10 127,-30 147,-30 147,-10 127,-10"/>
<text text-anchor="start" x="150.73" y="-15.4" font-family="Times-12" font-size="14.00"> &#160;Module</text>
<polygon fill="#80b1d3" stroke="transparent" points="213,-10 213,-30 233,-30 233,-10 213,-10"/>
<text text-anchor="start" x="236.78" y="-15.4" font-family="Times-12" font-size="14.00"> &#160;Bootstrap</text>
<polygon fill="#fdb462" stroke="transparent" points="310,-10 310,-30 330,-30 330,-10 310,-10"/>
<text text-anchor="start" x="333.67" y="-15.4" font-family="Times-12" font-size="14.00"> &#160;Providers</text>
<polygon fill="#fb8072" stroke="transparent" points="406,-10 406,-30 426,-30 426,-10 406,-10"/>
<text text-anchor="start" x="429.73" y="-15.4" font-family="Times-12" font-size="14.00"> &#160;Exports</text>
<g id="clust1" class="cluster">
<title>cluster__SteroidsModule</title>
<polygon fill="none" stroke="black" stroke-dasharray="1,5" points="10.5,-70 10.5,-268 485.5,-268 485.5,-70 10.5,-70"/>
</g>
<g id="clust3" class="cluster">
<title>cluster__SteroidsModule_imports</title>
<polygon fill="none" stroke="black" points="23.5,-78 23.5,-130 472.5,-130 472.5,-78 23.5,-78"/>
</g>
<g id="clust4" class="cluster">
<title>cluster__SteroidsModule_exports</title>
<polygon fill="none" stroke="black" points="18.5,-208 18.5,-260 477.5,-260 477.5,-208 18.5,-208"/>
</g>
<!-- CommonNamesModule -->
<g id="node1" class="node">
<title>CommonNamesModule</title>
<polygon fill="#8dd3c7" stroke="black" points="464.54,-122 461.54,-126 440.54,-126 437.54,-122 314.46,-122 314.46,-86 464.54,-86 464.54,-122"/>
<text text-anchor="middle" x="389.5" y="-99.8" font-family="Times,serif" font-size="14.00">CommonNamesModule</text>
</g>
<!-- _SteroidsModule -->
<g id="node4" class="node">
<title>_SteroidsModule</title>
<polygon fill="#8dd3c7" stroke="black" points="281.93,-187 278.93,-191 257.93,-191 254.93,-187 169.07,-187 169.07,-151 281.93,-151 281.93,-187"/>
<text text-anchor="middle" x="225.5" y="-164.8" font-family="Times,serif" font-size="14.00">_SteroidsModule</text>
</g>
<!-- CommonNamesModule&#45;&gt;_SteroidsModule -->
<g id="edge1" class="edge">
<title>CommonNamesModule&#45;&gt;_SteroidsModule</title>
<path fill="none" stroke="black" d="M415.01,-122.02C415.01,-139.37 415.01,-163 415.01,-163 415.01,-163 291.85,-163 291.85,-163"/>
<polygon fill="black" stroke="black" points="291.85,-159.5 281.85,-163 291.85,-166.5 291.85,-159.5"/>
</g>
<!-- ManufacturersModule -->
<g id="node2" class="node">
<title>ManufacturersModule</title>
<polygon fill="#8dd3c7" stroke="black" points="296.17,-122 293.17,-126 272.17,-126 269.17,-122 154.83,-122 154.83,-86 296.17,-86 296.17,-122"/>
<text text-anchor="middle" x="225.5" y="-99.8" font-family="Times,serif" font-size="14.00">ManufacturersModule</text>
</g>
<!-- ManufacturersModule&#45;&gt;_SteroidsModule -->
<g id="edge2" class="edge">
<title>ManufacturersModule&#45;&gt;_SteroidsModule</title>
<path fill="none" stroke="black" d="M225.5,-122.11C225.5,-122.11 225.5,-140.99 225.5,-140.99"/>
<polygon fill="black" stroke="black" points="222,-140.99 225.5,-150.99 229,-140.99 222,-140.99"/>
</g>
<!-- SteroidsModule -->
<g id="node3" class="node">
<title>SteroidsModule</title>
<polygon fill="#8dd3c7" stroke="black" points="137.43,-122 134.43,-126 113.43,-126 110.43,-122 31.57,-122 31.57,-86 137.43,-86 137.43,-122"/>
<text text-anchor="middle" x="84.5" y="-99.8" font-family="Times,serif" font-size="14.00">SteroidsModule</text>
</g>
<!-- SteroidsModule&#45;&gt;_SteroidsModule -->
<g id="edge3" class="edge">
<title>SteroidsModule&#45;&gt;_SteroidsModule</title>
<path fill="none" stroke="black" d="M100.57,-122.02C100.57,-139.37 100.57,-163 100.57,-163 100.57,-163 159.25,-163 159.25,-163"/>
<polygon fill="black" stroke="black" points="159.25,-166.5 169.25,-163 159.25,-159.5 159.25,-166.5"/>
</g>
<!-- CommonNamesModule  -->
<g id="node5" class="node">
<title>CommonNamesModule </title>
<polygon fill="#fb8072" stroke="black" points="469.54,-252 315.46,-252 315.46,-216 469.54,-216 469.54,-252"/>
<text text-anchor="middle" x="392.5" y="-229.8" font-family="Times,serif" font-size="14.00">CommonNamesModule </text>
</g>
<!-- _SteroidsModule&#45;&gt;CommonNamesModule  -->
<g id="edge4" class="edge">
<title>_SteroidsModule&#45;&gt;CommonNamesModule </title>
<path fill="none" stroke="black" stroke-dasharray="5,2" d="M281.94,-175C320.72,-175 365.24,-175 365.24,-175 365.24,-175 365.24,-205.98 365.24,-205.98"/>
<polygon fill="black" stroke="black" points="361.74,-205.98 365.24,-215.98 368.74,-205.98 361.74,-205.98"/>
</g>
<!-- ManufacturersModule  -->
<g id="node6" class="node">
<title>ManufacturersModule </title>
<polygon fill="#fb8072" stroke="black" points="297.67,-252 153.33,-252 153.33,-216 297.67,-216 297.67,-252"/>
<text text-anchor="middle" x="225.5" y="-229.8" font-family="Times,serif" font-size="14.00">ManufacturersModule </text>
</g>
<!-- _SteroidsModule&#45;&gt;ManufacturersModule  -->
<g id="edge5" class="edge">
<title>_SteroidsModule&#45;&gt;ManufacturersModule </title>
<path fill="none" stroke="black" stroke-dasharray="5,2" d="M225.5,-187.11C225.5,-187.11 225.5,-205.99 225.5,-205.99"/>
<polygon fill="black" stroke="black" points="222,-205.99 225.5,-215.99 229,-205.99 222,-205.99"/>
</g>
<!-- SteroidsModule  -->
<g id="node7" class="node">
<title>SteroidsModule </title>
<polygon fill="#fb8072" stroke="black" points="134.93,-252 26.07,-252 26.07,-216 134.93,-216 134.93,-252"/>
<text text-anchor="middle" x="80.5" y="-229.8" font-family="Times,serif" font-size="14.00">SteroidsModule </text>
</g>
<!-- _SteroidsModule&#45;&gt;SteroidsModule  -->
<g id="edge6" class="edge">
<title>_SteroidsModule&#45;&gt;SteroidsModule </title>
<path fill="none" stroke="black" stroke-dasharray="5,2" d="M168.88,-175C123.09,-175 66.18,-175 66.18,-175 66.18,-175 66.18,-205.98 66.18,-205.98"/>
<polygon fill="black" stroke="black" points="62.68,-205.98 66.18,-215.98 69.68,-205.98 62.68,-205.98"/>
</g>
</g>
</svg>
